<svg id="svg" version="1.1" xmlns="http://www.w3.org/2000/svg" xmlns:xlink="http://www.w3.org/1999/xlink" width="400" height="400" viewBox="0, 0, 400,400"><g id="svgg"><path id="path0" d="M193.667 79.516 C 121.257 83.237,68.238 150.326,81.329 221.667 C 92.999 285.265,152.732 328.437,216.666 319.482 C 283.294 310.149,329.415 248.179,319.233 181.667 C 309.873 120.528,255.552 76.336,193.667 79.516 M206.000 88.003 C 274.677 91.888,323.789 154.377,310.904 221.482 C 301.929 268.227,263.623 304.586,216.250 311.325 C 211.284 312.031,201.068 312.754,200.286 312.454 C 200.017 312.350,200.000 309.606,200.000 265.255 C 200.000 239.357,199.955 218.167,199.899 218.167 C 199.655 218.167,185.817 231.927,185.751 232.237 C 185.710 232.428,185.332 239.371,184.911 247.667 C 184.491 255.963,184.090 263.837,184.020 265.167 L 183.892 267.583 191.279 289.749 C 195.342 301.941,198.667 312.021,198.667 312.150 C 198.667 313.275,180.686 311.111,172.846 309.042 L 171.108 308.583 167.540 297.875 C 165.062 290.437,163.900 287.167,163.736 287.167 C 163.607 287.167,158.974 289.430,153.440 292.196 L 143.380 297.225 141.232 295.920 C 134.144 291.612,121.417 281.706,121.417 280.497 C 121.417 280.352,128.614 276.672,140.203 270.890 C 156.024 262.998,159.002 261.458,159.069 261.134 C 159.249 260.262,160.170 240.103,160.035 239.969 C 159.905 239.838,140.168 240.731,138.910 240.924 C 138.349 241.010,139.406 238.986,124.994 267.583 C 118.791 279.894,119.496 278.721,118.735 277.991 C 114.552 273.979,107.692 265.109,103.761 258.628 L 102.474 256.507 107.580 246.420 C 110.388 240.872,112.644 236.265,112.592 236.181 C 112.541 236.098,107.694 234.444,101.821 232.506 C 91.197 229.000,91.141 228.980,90.921 228.449 C 90.263 226.867,88.609 218.263,88.007 213.292 C 87.428 208.514,87.031 201.770,87.319 201.592 C 87.516 201.471,87.774 201.554,114.417 210.374 L 132.083 216.222 137.667 215.949 C 157.709 214.971,167.460 214.473,167.750 214.413 C 167.933 214.375,171.271 211.154,175.166 207.255 L 182.249 200.167 175.166 193.078 C 171.271 189.180,167.933 185.958,167.750 185.919 C 167.354 185.835,133.951 184.158,132.768 184.163 C 131.985 184.167,126.762 185.856,93.794 196.773 C 90.335 197.919,87.422 198.805,87.322 198.743 C 86.878 198.469,87.657 188.744,88.593 182.872 C 89.228 178.885,90.636 172.347,91.008 171.651 C 91.128 171.427,94.044 170.394,101.795 167.830 C 107.636 165.898,112.481 164.252,112.560 164.173 C 112.641 164.092,110.464 159.604,107.585 153.917 L 102.466 143.804 103.340 142.360 C 107.506 135.474,114.956 125.809,118.897 122.177 C 119.483 121.638,118.478 119.798,128.994 140.665 C 134.144 150.885,138.392 159.281,138.435 159.324 C 138.590 159.479,159.895 160.505,160.036 160.364 C 160.169 160.231,159.249 140.071,159.070 139.204 C 159.005 138.888,155.893 137.277,140.204 129.438 C 129.183 123.930,121.417 119.957,121.417 119.825 C 121.417 119.549,124.990 116.266,127.906 113.865 C 131.974 110.514,136.642 107.203,141.232 104.414 L 143.380 103.108 153.440 108.137 C 158.974 110.903,163.607 113.167,163.736 113.167 C 163.900 113.167,165.051 109.924,167.507 102.542 C 169.451 96.698,171.101 91.851,171.174 91.772 C 172.443 90.383,198.667 86.961,198.667 88.185 C 198.667 88.315,195.342 98.395,191.279 110.586 L 183.891 132.750 184.019 135.167 C 184.089 136.496,184.491 144.371,184.911 152.667 C 185.332 160.962,185.709 167.905,185.750 168.095 C 185.817 168.403,199.657 182.167,199.900 182.167 C 199.955 182.167,200.000 160.992,200.000 135.111 C 200.000 109.231,200.050 88.006,200.111 87.944 C 200.268 87.787,202.595 87.811,206.000 88.003 M225.278 116.611 C 225.115 116.774,225.142 283.632,225.305 283.732 C 225.380 283.779,226.637 283.418,228.096 282.930 C 259.012 272.589,281.861 245.580,286.831 213.500 C 293.323 171.603,268.610 131.157,228.115 117.404 C 225.080 116.373,225.420 116.469,225.278 116.611 " stroke="none" fill="#fcfbfb" fill-rule="evenodd"></path><path id="path1" d="M158.685 7.929 C 155.656 8.747,152.912 11.520,152.102 14.583 C 151.821 15.647,151.810 15.717,150.004 28.167 C 148.205 40.566,148.194 40.647,147.990 42.333 C 147.697 44.760,144.697 65.508,144.548 66.141 C 144.421 66.679,144.315 66.743,141.583 67.904 C 133.551 71.320,124.201 76.735,115.466 83.030 L 112.516 85.156 110.216 84.267 C 108.951 83.778,106.604 82.835,105.000 82.172 C 103.396 81.509,101.521 80.756,100.833 80.500 C 100.146 80.243,97.896 79.340,95.833 78.493 C 93.771 77.646,91.258 76.636,90.250 76.249 C 89.242 75.861,87.104 75.000,85.500 74.336 C 83.896 73.671,81.571 72.734,80.333 72.252 C 77.486 71.144,69.318 67.871,66.952 66.891 C 64.019 65.674,63.650 65.589,61.333 65.594 C 57.395 65.602,54.442 67.334,52.511 70.769 C 52.104 71.492,51.030 73.358,50.123 74.917 C 49.216 76.475,48.155 78.313,47.765 79.000 C 47.375 79.688,46.042 82.012,44.802 84.167 C 43.563 86.321,41.517 89.883,40.256 92.083 C 38.996 94.283,37.905 96.158,37.833 96.250 C 37.760 96.342,37.180 97.354,36.544 98.500 C 35.907 99.646,34.749 101.671,33.969 103.000 C 33.190 104.329,32.315 105.853,32.026 106.386 C 31.736 106.920,30.911 108.345,30.194 109.553 C 29.476 110.761,28.563 112.350,28.165 113.083 C 27.767 113.817,27.015 115.129,26.494 116.000 C 25.974 116.871,25.191 118.221,24.754 119.000 C 24.318 119.779,23.116 121.879,22.084 123.667 C 21.051 125.454,19.344 128.417,18.290 130.250 C 17.236 132.083,15.899 134.408,15.319 135.417 C 13.343 138.850,13.007 139.864,13.002 142.393 C 12.997 145.904,14.189 148.001,17.750 150.743 C 18.575 151.378,20.075 152.544,21.083 153.334 C 22.092 154.124,25.617 156.860,28.917 159.415 C 32.217 161.969,35.554 164.566,36.333 165.185 C 37.112 165.804,38.513 166.897,39.446 167.613 C 42.157 169.696,50.611 176.277,52.250 177.581 C 53.075 178.237,54.519 179.357,55.458 180.071 C 56.398 180.785,57.167 181.455,57.167 181.560 C 57.167 181.664,56.983 182.987,56.759 184.500 C 55.319 194.207,55.244 208.086,56.582 216.990 L 56.814 218.537 56.312 218.960 C 56.036 219.192,55.110 219.915,54.255 220.566 C 53.399 221.217,49.866 223.963,46.402 226.667 C 42.938 229.371,39.462 232.072,38.677 232.670 C 37.892 233.267,36.490 234.355,35.561 235.086 C 32.967 237.130,29.814 239.595,27.342 241.512 C 26.110 242.468,24.160 243.982,23.009 244.877 C 21.858 245.771,20.017 247.193,18.917 248.037 C 14.036 251.778,12.780 253.817,12.781 258.000 C 12.781 260.453,13.158 261.613,14.902 264.542 C 15.597 265.710,16.167 266.702,16.167 266.746 C 16.167 266.790,17.017 268.272,18.056 270.038 C 19.095 271.805,20.980 275.050,22.245 277.250 C 23.510 279.450,25.311 282.563,26.246 284.167 C 27.182 285.771,28.195 287.533,28.499 288.083 C 28.803 288.633,29.631 290.058,30.341 291.250 C 31.050 292.442,31.963 294.017,32.370 294.750 C 32.777 295.483,33.747 297.171,34.526 298.500 C 35.306 299.829,36.282 301.517,36.697 302.250 C 37.111 302.983,37.847 304.258,38.333 305.083 C 38.818 305.908,39.515 307.108,39.882 307.750 C 40.578 308.969,43.036 313.209,45.679 317.750 C 46.533 319.217,47.667 321.194,48.201 322.144 C 48.734 323.094,49.758 324.857,50.475 326.061 C 51.192 327.265,52.034 328.731,52.344 329.319 C 54.203 332.838,58.277 334.809,62.667 334.314 C 64.141 334.148,64.830 333.902,72.333 330.868 C 74.029 330.182,76.729 329.103,78.333 328.469 C 79.938 327.836,82.787 326.690,84.667 325.924 C 88.730 324.267,94.366 322.003,99.417 320.000 C 101.433 319.200,104.208 318.081,105.583 317.512 C 108.622 316.256,112.022 314.948,112.254 314.946 C 112.348 314.945,113.773 315.916,115.421 317.104 C 124.158 323.401,133.809 328.958,141.875 332.335 C 143.227 332.901,144.333 333.415,144.333 333.476 C 144.333 333.538,144.972 337.975,145.753 343.336 C 147.409 354.701,147.737 357.017,148.000 359.167 C 148.460 362.941,151.522 383.689,151.773 384.735 C 152.612 388.234,155.441 391.223,158.750 392.107 C 160.265 392.512,240.068 392.432,241.539 392.024 C 244.885 391.096,247.507 388.141,248.155 384.567 C 248.365 383.408,251.895 358.810,252.182 356.500 C 252.375 354.955,255.242 334.925,255.417 333.900 C 255.517 333.320,255.460 333.353,258.417 332.133 C 266.688 328.719,278.790 321.562,286.866 315.309 L 287.483 314.831 288.366 315.185 C 288.852 315.379,289.887 315.781,290.667 316.079 C 291.446 316.376,293.396 317.164,295.000 317.829 C 296.604 318.494,298.929 319.433,300.167 319.916 C 301.404 320.398,305.717 322.125,309.750 323.754 C 313.783 325.383,318.171 327.144,319.500 327.669 C 322.861 328.994,330.885 332.218,333.048 333.112 C 336.722 334.631,339.432 334.888,341.991 333.961 C 345.402 332.724,346.161 331.782,351.838 321.732 C 352.362 320.805,353.425 318.967,354.200 317.648 C 354.976 316.329,355.860 314.800,356.164 314.250 C 356.469 313.700,357.294 312.275,357.998 311.083 C 358.701 309.892,359.920 307.792,360.707 306.417 C 361.493 305.042,362.487 303.317,362.916 302.583 C 363.583 301.445,365.928 297.390,368.652 292.667 C 369.048 291.979,370.350 289.729,371.545 287.667 C 372.740 285.604,374.561 282.448,375.591 280.652 C 376.621 278.857,377.797 276.832,378.204 276.152 C 378.879 275.027,379.238 274.398,380.338 272.417 C 380.541 272.050,381.475 270.438,382.414 268.833 C 383.352 267.229,384.620 265.054,385.232 264.000 C 388.572 258.239,387.754 253.472,382.746 249.509 C 381.987 248.908,380.252 247.541,378.891 246.472 C 377.530 245.402,375.289 243.640,373.911 242.555 C 372.533 241.471,370.066 239.533,368.429 238.250 C 366.792 236.967,364.503 235.167,363.342 234.250 C 362.181 233.333,360.786 232.238,360.241 231.815 C 359.696 231.392,356.662 229.005,353.500 226.510 C 350.337 224.015,346.845 221.273,345.739 220.416 C 343.156 218.415,343.340 218.729,343.597 216.750 C 344.680 208.401,344.634 191.728,343.507 183.676 C 343.245 181.807,343.230 181.405,343.417 181.259 C 343.540 181.162,344.078 180.747,344.612 180.335 C 345.146 179.924,346.596 178.795,347.833 177.826 C 350.074 176.071,357.394 170.375,361.305 167.343 C 364.748 164.673,367.262 162.717,371.167 159.667 C 376.060 155.845,378.585 153.882,381.359 151.744 C 387.945 146.668,389.020 142.172,385.213 135.633 C 382.408 130.816,381.044 128.459,380.364 127.250 C 379.952 126.517,378.885 124.679,377.994 123.167 C 377.103 121.654,376.041 119.817,375.633 119.083 C 375.226 118.350,374.195 116.550,373.343 115.083 C 370.066 109.444,368.188 106.203,367.499 105.000 C 365.898 102.203,363.055 97.296,361.947 95.417 C 361.298 94.317,360.346 92.667,359.830 91.750 C 359.315 90.833,358.204 88.902,357.363 87.458 C 353.541 80.900,352.717 79.478,351.834 77.917 C 351.316 77.000,350.380 75.387,349.754 74.333 C 349.129 73.279,348.355 71.929,348.035 71.333 C 344.965 65.617,340.005 64.226,332.840 67.073 C 327.267 69.287,326.488 69.600,319.500 72.423 C 315.696 73.960,311.308 75.721,309.750 76.336 C 306.920 77.453,292.788 83.138,292.000 83.476 C 291.771 83.575,290.704 83.997,289.630 84.415 L 287.676 85.175 285.080 83.261 C 276.736 77.110,267.078 71.519,258.292 67.753 C 256.848 67.135,255.667 66.556,255.667 66.468 C 255.667 66.380,255.519 65.320,255.339 64.112 C 254.536 58.745,252.331 43.330,252.007 40.833 C 251.044 33.386,248.289 15.142,247.994 14.250 C 247.083 11.495,244.938 9.251,242.191 8.181 L 241.083 7.750 200.333 7.718 C 165.137 7.691,159.461 7.720,158.685 7.929 M205.833 79.503 C 280.879 83.339,334.151 153.497,317.641 226.750 C 303.768 288.307,244.190 328.829,181.667 319.232 C 116.554 309.237,71.552 248.815,80.512 183.417 C 88.956 121.786,143.777 76.330,205.833 79.503 M200.111 87.944 C 200.050 88.006,200.000 109.231,200.000 135.111 C 200.000 160.992,199.955 182.167,199.900 182.167 C 199.657 182.167,185.817 168.403,185.750 168.095 C 185.709 167.905,185.332 160.962,184.911 152.667 C 184.491 144.371,184.089 136.496,184.019 135.167 L 183.891 132.750 191.279 110.586 C 195.342 98.395,198.667 88.315,198.667 88.185 C 198.667 86.961,172.443 90.383,171.174 91.772 C 171.101 91.851,169.451 96.698,167.507 102.542 C 165.051 109.924,163.900 113.167,163.736 113.167 C 163.607 113.167,158.974 110.903,153.440 108.137 L 143.380 103.108 141.232 104.414 C 136.642 107.203,131.974 110.514,127.906 113.865 C 124.990 116.266,121.417 119.549,121.417 119.825 C 121.417 119.957,129.183 123.930,140.204 129.438 C 155.893 137.277,159.005 138.888,159.070 139.204 C 159.249 140.071,160.169 160.231,160.036 160.364 C 159.895 160.505,138.590 159.479,138.435 159.324 C 138.392 159.281,134.144 150.885,128.994 140.665 C 118.478 119.798,119.483 121.638,118.897 122.177 C 114.956 125.809,107.506 135.474,103.340 142.360 L 102.466 143.804 107.585 153.917 C 110.464 159.604,112.641 164.092,112.560 164.173 C 112.481 164.252,107.636 165.898,101.795 167.830 C 94.044 170.394,91.128 171.427,91.008 171.651 C 90.636 172.347,89.228 178.885,88.593 182.872 C 87.657 188.744,86.878 198.469,87.322 198.743 C 87.422 198.805,90.335 197.919,93.794 196.773 C 126.762 185.856,131.985 184.167,132.768 184.163 C 133.951 184.158,167.354 185.835,167.750 185.919 C 167.933 185.958,171.271 189.180,175.166 193.078 L 182.249 200.167 175.166 207.255 C 171.271 211.154,167.933 214.375,167.750 214.413 C 167.460 214.473,157.709 214.971,137.667 215.949 L 132.083 216.222 114.417 210.374 C 87.774 201.554,87.516 201.471,87.319 201.592 C 87.031 201.770,87.428 208.514,88.007 213.292 C 88.609 218.263,90.263 226.867,90.921 228.449 C 91.141 228.980,91.197 229.000,101.821 232.506 C 107.694 234.444,112.541 236.098,112.592 236.181 C 112.644 236.265,110.388 240.872,107.580 246.420 L 102.474 256.507 103.761 258.628 C 107.692 265.109,114.552 273.979,118.735 277.991 C 119.496 278.721,118.791 279.894,124.994 267.583 C 139.406 238.986,138.349 241.010,138.910 240.924 C 140.168 240.731,159.905 239.838,160.035 239.969 C 160.170 240.103,159.249 260.262,159.069 261.134 C 159.002 261.458,156.024 262.998,140.203 270.890 C 128.614 276.672,121.417 280.352,121.417 280.497 C 121.417 281.706,134.144 291.612,141.232 295.920 L 143.380 297.225 153.440 292.196 C 158.974 289.430,163.607 287.167,163.736 287.167 C 163.900 287.167,165.062 290.437,167.540 297.875 L 171.108 308.583 172.846 309.042 C 180.686 311.111,198.667 313.275,198.667 312.150 C 198.667 312.021,195.342 301.941,191.279 289.749 L 183.892 267.583 184.020 265.167 C 184.090 263.837,184.491 255.963,184.911 247.667 C 185.332 239.371,185.710 232.428,185.751 232.237 C 185.817 231.927,199.655 218.167,199.899 218.167 C 199.955 218.167,200.000 239.357,200.000 265.255 C 200.000 309.606,200.017 312.350,200.286 312.454 C 200.675 312.603,208.512 312.223,211.500 311.910 C 277.668 304.976,323.342 243.837,310.902 178.851 C 302.004 132.364,263.981 96.056,216.916 89.105 C 210.907 88.217,200.553 87.502,200.111 87.944 M228.115 117.404 C 268.610 131.157,293.323 171.603,286.831 213.500 C 281.861 245.580,259.012 272.589,228.096 282.930 C 226.637 283.418,225.380 283.779,225.305 283.732 C 225.142 283.632,225.115 116.774,225.278 116.611 C 225.420 116.469,225.080 116.373,228.115 117.404 " stroke="none" fill="#fc04ac" fill-rule="evenodd"></path></g></svg>