<svg xmlns="http://www.w3.org/2000/svg" width="256" height="256"><path fill-opacity=".016" d="M0 128.004v128.004l128.25-.254 128.25-.254.254-127.75L257.008 0H0v128.004m.485.496c0 70.4.119 99.053.265 63.672.146-35.38.146-92.98 0-128C.604 29.153.485 58.1.485 128.5" fill="#1976D2" fill-rule="evenodd"/><path fill-opacity=".147" d="M98.579 7.25c-.807 1.238-2.493 9.605-3.747 18.594l-2.279 16.343-4.027 2.052c-2.214 1.128-6.873 3.848-10.353 6.045l-6.327 3.993-15.955-6.32c-13.239-5.244-16.409-6.161-18.619-5.384C33.641 43.85 7.513 88.924 8.387 92.404c.344 1.373 5.974 6.429 14.392 12.925L36.605 116l-.678 5.75c-.373 3.162-.492 8.675-.265 12.25l.413 6.5-13.534 10.313c-9.114 6.945-13.739 11.126-14.159 12.801-.496 1.978 1.99 7.042 12.119 24.687 7.009 12.21 13.433 22.986 14.276 23.949.843.962 2.501 1.75 3.685 1.75 1.183 0 8.85-2.7 17.038-6s15.362-5.999 15.943-5.997c.582.002 3.691 1.754 6.91 3.895 3.219 2.14 7.616 4.686 9.771 5.658 4.472 2.016 4.123.979 6.868 20.397 1.124 7.949 2.721 15.487 3.549 16.75l1.505 2.297H128c27.888 0 27.957-.005 29.421-2.25.807-1.238 2.493-9.605 3.747-18.594l2.279-16.343 4.027-2.052c2.214-1.128 6.873-3.848 10.353-6.045l6.327-3.993 15.955 6.32c13.236 5.243 16.41 6.161 18.618 5.384 3.672-1.291 29.784-46.255 28.902-49.768-.35-1.397-5.823-6.439-13.964-12.864l-13.387-10.567-.005-12.364-.006-12.364 13.363-10.313c8.915-6.88 13.571-11.142 13.988-12.801.496-1.978-1.99-7.042-12.119-24.687-7.009-12.21-13.433-22.987-14.276-23.949-.843-.963-2.501-1.75-3.685-1.75-1.183 0-8.85 2.7-17.038 6s-15.362 5.999-15.943 5.997c-.582-.002-3.691-1.754-6.91-3.895-3.219-2.14-7.616-4.686-9.771-5.658-4.472-2.016-4.123-.979-6.868-20.397-1.124-7.949-2.721-15.487-3.549-16.75L155.954 5H128c-27.888 0-27.957.005-29.421 2.25M114.5 52.415c-16.257 3.186-27.562 8.94-39.371 20.037C64.724 82.231 57.172 95.125 53.43 109.5c-2.483 9.538-2.483 27.462 0 37 7.253 27.861 28.209 48.817 56.07 56.07 9.538 2.483 27.462 2.483 37 0 27.861-7.253 48.817-28.209 56.07-56.07 2.483-9.538 2.483-27.462 0-37-7.201-27.66-28.38-48.965-55.57-55.898-9.089-2.317-23.959-2.861-32.5-1.187m-.068 4.687-5.069.993-2.235 6.94-2.235 6.94-5.918-2.988c-3.255-1.643-6.493-2.979-7.196-2.97-1.787.025-13.779 9.077-13.777 10.399.001.596 5.289 3.784 11.75 7.084l11.748 6 .298 6.25.297 6.25h-13.08L83 90c-3.308-6.6-6.349-11.992-6.758-11.982-.802.019-5.449 5.495-9.107 10.731l-2.27 3.249 3.433 6.464 3.432 6.465-6.615 2.185c-3.638 1.202-6.934 2.677-7.323 3.278-.39.601-.976 3.572-1.303 6.601-.327 3.03-.804 6.522-1.061 7.759-.637 3.072.127 2.97 16.226-2.173 13.801-4.409 13.882-4.422 25.023-3.862l11.178.561 4.281 4.362 4.28 4.362-4.287 4.369-4.288 4.369-11.417.703-11.416.703-14.461-4.782c-7.953-2.63-14.648-4.575-14.877-4.322-.482.532 1.007 13.368 1.863 16.065.375 1.18 2.982 2.59 7.447 4.028l6.871 2.213-3.343 6.637-3.342 6.638 4.912 6.69c2.701 3.679 5.361 6.689 5.909 6.689.549 0 3.705-5.4 7.013-12l6.015-12H102v12.985l-12.625 6.327-12.625 6.328 5.875 4.699c3.231 2.584 6.832 4.95 8.001 5.257 1.298.341 4.441-.611 8.076-2.446l5.951-3.004 2.211 6.864 2.211 6.864 5.686 1.18c3.398.706 10.122.985 16.712.695 19.725-.868 33.988-7.207 48.195-21.421 6.64-6.643 9.024-9.916 12.749-17.5 6.128-12.478 7.927-19.925 7.932-32.828.011-32.128-20.844-59.812-52.349-69.49-6.582-2.022-26.228-2.846-33.568-1.408m8.302 14.155-4.715 14.258.64 11.181.64 11.181 4.35 4.269 4.351 4.27V86.708c0-16.339-.124-29.708-.276-29.708-.151 0-2.397 6.416-4.99 14.257M144 127.933c0 38.706.305 53.067 1.127 53.067.62 0 4.108-1.444 7.75-3.21 8.978-4.351 20.649-15.941 24.966-24.79 10.725-21.991 6.741-46.687-10.251-63.53-6.413-6.358-15.128-12.044-21.342-13.924l-2.25-.681v53.068m-21.174 16.817c-3.568 3.738-3.581 3.787-4.23 15.165l-.652 11.416 4.611 13.834c2.536 7.609 4.799 13.835 5.028 13.835.229 0 .417-13.05.417-29s-.359-29-.797-29c-.438 0-2.408 1.688-4.377 3.75" fill="#1976D2" fill-rule="evenodd"/><path fill-opacity=".547" d="M99.482 7.02c-1.332 1.472-2.452 6.291-4.127 17.75-1.264 8.652-2.311 16.224-2.327 16.828-.015.604-1.868 1.928-4.118 2.942-2.249 1.015-7.01 3.763-10.579 6.107l-6.49 4.263-16.33-6.63c-15.699-6.374-16.424-6.567-18.792-5.016-3.709 2.431-27.93 45.078-27.533 48.479.246 2.111 3.199 4.958 13.718 13.226l13.403 10.536L36.242 128l-.066 12.496-8.838 6.83c-17.295 13.365-18.479 14.542-18.142 18.029.466 4.817 24.699 46.327 27.804 47.628 2.121.888 4.956.062 18.719-5.459l16.219-6.505 5.348 3.74c2.941 2.058 7.619 4.802 10.395 6.098l5.048 2.358 2.296 16.461c1.695 12.161 2.795 17.096 4.208 18.893l1.912 2.431h26.773c25.591 0 26.853-.089 28.6-2.02 1.332-1.472 2.452-6.291 4.127-17.75 1.264-8.652 2.311-16.224 2.327-16.828.015-.604 1.868-1.928 4.118-2.942 2.249-1.015 7.01-3.763 10.579-6.107l6.49-4.263 16.33 6.63c15.704 6.376 16.423 6.568 18.794 5.014 3.226-2.113 27.717-44.549 27.717-48.025 0-2.807-1.052-3.808-17.801-16.929l-9.301-7.287-.07-12.468-.071-12.469 8.872-6.856c17.331-13.394 18.512-14.567 18.175-18.055-.466-4.817-24.699-46.327-27.804-47.628-2.121-.888-4.956-.062-18.719 5.459l-16.219 6.505-5.348-3.74c-2.941-2.058-7.619-4.802-10.395-6.098l-5.048-2.358-2.296-16.461c-1.695-12.161-2.795-17.096-4.208-18.893L154.855 5h-26.773c-25.591 0-26.853.089-28.6 2.02m10.075 46.076C55.325 66.414 32.96 131.682 67.502 175.827c30.361 38.803 90.635 38.803 120.996 0 34.7-44.347 12.068-109.695-42.522-122.781-11.042-2.647-25.52-2.627-36.419.05m7.943 4.018c-3.3.479-6.477 1.052-7.06 1.274-.583.222-1.898 3.172-2.923 6.556-1.024 3.383-2.217 6.371-2.65 6.638-.433.268-3.563-.914-6.954-2.626l-6.167-3.113-5.254 3.618c-10.258 7.065-10.378 6.578 3.319 13.444l12.015 6.023.337 6.634c.185 3.649.061 6.804-.277 7.011-.338.208-3.532.105-7.098-.228l-6.483-.606-5.86-11.849-5.859-11.85-2.312 2.172c-1.272 1.195-3.729 4.38-5.46 7.078l-3.147 4.905 3.169 6.426 3.169 6.427-2.312.878c-1.271.484-4.24 1.457-6.598 2.164-2.856.855-4.579 2.052-5.162 3.586-.973 2.56-2.455 15.324-1.779 15.324.236 0 6.486-2.061 13.888-4.58l13.458-4.581 11.991.585 11.992.585 4.495 4.496 4.496 4.495-4.684 4.684-4.684 4.683-11.437.438c-11.31.433-11.58.39-24.303-3.831-7.076-2.347-13.501-4.503-14.276-4.79-1.16-.428-1.303.627-.808 5.93.965 10.341 1.642 11.365 9.154 13.865 3.61 1.201 6.564 2.404 6.564 2.673 0 .269-1.452 3.11-3.226 6.313-3.724 6.723-3.559 7.433 3.603 15.552l4.123 4.673 5.93-12.02 5.929-12.02 6.908-.325c3.8-.179 6.981-.251 7.071-.159.089.091-.063 3.241-.338 7l-.5 6.834-11.854 6.083-11.853 6.084 4.353 3.752c7.966 6.864 8.928 7.077 15.944 3.535 3.362-1.697 6.404-2.799 6.761-2.449.357.349 1.583 3.416 2.725 6.815l2.076 6.18 5.424 1.154c7.591 1.614 12.251 1.653 11.678.096-.253-.687-2.389-7.065-4.747-14.172l-4.287-12.922.566-11.491.566-11.49 4.574-4.574 4.574-4.575v60.732l7.133-.702c30.66-3.022 56.221-25.508 63.345-55.724 1.897-8.05 1.91-22.307.027-31.332-4.479-21.465-22.293-42.459-43.255-50.976C149.73 59.28 134.656 56 129.869 56 128.085 56 128 57.373 128 86.237v30.237l-4.574-4.575-4.574-4.574-.566-11.49-.566-11.491 4.287-12.922c2.358-7.107 4.494-13.484 4.747-14.172.515-1.399-.449-1.413-9.254-.136m26.5 71.361v53.475l2.722-1.034c17.91-6.81 31.308-21.712 35.887-39.915 2.223-8.838 1.483-23.26-1.616-31.501-3.28-8.72-10.338-18.854-16.831-24.164-5.386-4.405-16.235-10.334-18.912-10.335-.984-.001-1.25 11.36-1.25 53.474" fill="#1976D2" fill-rule="evenodd"/><path fill-opacity=".299" d="M99.211 7.25c-.569.688-1.984 8-3.146 16.25-2.895 20.554-2.349 19.106-8.332 22.121-2.878 1.45-7.6 4.201-10.492 6.112l-5.26 3.474-15.24-6.107c-8.383-3.358-16.473-6.105-17.978-6.103-3.189.004-2.567-.903-18.746 27.314C10.291 87.274 8.79 90.469 9.579 92.533c.506 1.325 6.771 6.952 13.921 12.504l13 10.094.04 12.732.039 12.732-13.789 10.749C11.731 159.963 9 162.578 9 164.548c0 2.013 22.736 42.94 26.222 47.202 1.804 2.205 5.387 1.378 21.125-4.88l15.416-6.129 4.368 2.996c2.403 1.649 7.16 4.403 10.572 6.121 7.038 3.544 6.125 1.239 9.331 23.559 1.1 7.655 2.497 14.518 3.105 15.25 1.559 1.879 56.1 1.957 57.65.083.569-.687 1.984-8 3.146-16.25 2.895-20.554 2.349-19.106 8.332-22.121 2.878-1.45 7.6-4.201 10.492-6.112l5.26-3.474 15.408 6.178c9.522 3.817 16.488 6.054 18.234 5.853 2.532-.29 4.185-2.648 15.999-22.824 7.512-12.827 13.211-23.656 13.258-25.189.07-2.301-1.906-4.248-13.668-13.472l-13.75-10.783-.033-12.581-.032-12.581 13.782-10.743C244.27 96.036 247 93.421 247 91.452c0-2.013-22.736-42.94-26.222-47.202-1.804-2.205-5.387-1.378-21.125 4.88l-15.416 6.129-4.368-2.996c-2.403-1.649-7.16-4.403-10.572-6.121-7.038-3.544-6.125-1.239-9.331-23.559-1.1-7.655-2.497-14.518-3.105-15.25-1.559-1.879-56.1-1.957-57.65-.083m18.328 43.804c-28.508 4.433-51.319 22.52-61.793 48.996-3.676 9.292-5.11 17.135-5.11 27.95 0 20.13 7.017 38.073 20.547 52.536 15.525 16.597 34.159 24.696 56.817 24.696s41.292-8.099 56.817-24.696c13.53-14.463 20.547-32.406 20.547-52.536 0-10.815-1.434-18.658-5.11-27.95-11.395-28.806-37.397-47.585-68.44-49.429-4.572-.272-10.996-.077-14.275.433m-3.382 6.941c-4.244 1.003-4.549 1.37-6.667 8.005-.966 3.025-1.945 5.832-2.175 6.238-.23.406-3.082-.606-6.338-2.25C95.721 68.345 92.414 67 91.628 67c-.787 0-4.231 2.106-7.654 4.679l-6.225 4.679 11.875 5.935c6.532 3.265 11.977 6.023 12.101 6.13.124.107.528 3.451.898 7.432l.673 7.239-7.398-.297-7.398-.297-5.708-11c-3.139-6.05-5.919-11.45-6.176-12-.504-1.077-2.93 1.519-7.681 8.222l-2.992 4.222 3.028 5.999c1.666 3.3 3.029 6.374 3.029 6.832 0 .457-3.097 1.829-6.881 3.048l-6.882 2.216-1.118 7.521c-.616 4.137-1.119 7.921-1.119 8.41 0 .488 6.413-1.24 14.25-3.841l14.25-4.728 11.74.55 11.74.549 4.735 4.738 4.734 4.737-4.801 4.875-4.801 4.874-11.173.557c-11.147.556-11.209.547-25.49-3.962-7.874-2.486-14.532-4.305-14.795-4.041-.264.263.104 3.973.816 8.244l1.295 7.765 6.75 2.006c3.713 1.103 6.75 2.401 6.75 2.885 0 .483-1.38 3.612-3.066 6.952l-3.065 6.073 2.491 3.649c3.738 5.474 7.404 9.711 7.915 9.148.249-.275 2.997-5.502 6.106-11.616l5.653-11.117 4.623-.633c2.542-.349 5.974-.634 7.626-.634h3.004l-.668 7.191c-.368 3.956-.77 7.279-.894 7.386-.124.107-5.603 2.882-12.175 6.167l-11.95 5.972 6.889 5.059 6.89 5.059 6.827-3.438 6.828-3.438.885 2.33c.488 1.282 1.453 4.221 2.145 6.533.693 2.311 1.823 4.67 2.512 5.242 1.65 1.37 15.424 2.522 15.424 1.29 0-.515-1.969-6.806-4.375-13.981l-4.376-13.045.626-11.622.625-11.621 4.5-4.586 4.5-4.586.5 30.294.5 30.294 5.5-.358c16.398-1.066 32.463-8.513 44.5-20.628 8.909-8.966 13.477-15.996 17.027-26.203 14.069-40.455-8.631-82.872-49.937-93.312C141.24 57.9 135.502 57 132.84 57H128v60.425l-4.864-4.791-4.864-4.791-.511-11.585-.511-11.585 4.375-13.045C124.031 64.453 126 58.227 126 57.792c0-.984-7.354-.858-11.843.203M144 128.071v54.064l2.25-.698c16.536-5.128 32.588-22.746 36.845-40.437 6.298-26.173-9.013-55.562-33.868-65.006L144 74.008v54.063" fill="#1976D2" fill-rule="evenodd"/></svg>