<svg xmlns="http://www.w3.org/2000/svg" width="173" height="173" viewBox="0 0 173 173">
  <g fill="none" fill-rule="evenodd">
    <path fill="#1B52E4" d="M77.0042321,1.5 L64.1141227,40.3734209 L65.4314349,66.1600219 L86.5127346,87.2370168 L65.4314349,108.339978 L64.1141227,134.126579 L77.0042321,173 C72.0185836,172.473208 67.1596521,171.521553 62.4643195,170.181917 L53.8253119,144.118349 L32.5643907,154.798661 C28.9640783,151.937653 25.5977332,148.794876 22.4987014,145.403676 L51.3456656,130.915093 L52.2927528,112.343574 L33.7169292,113.294966 L19.5263962,141.975195 C16.3994199,138.171606 13.5917076,134.09561 11.1442346,129.788183 L20.5179778,110.81532 L1.69746627,104.660051 C0.75635634,100.069699 0.180008334,95.3463795 -4.19220214e-13,90.521706 L30.5226622,100.522204 L56.2963486,99.2048917 L68.246867,87.2370168 L56.2963486,75.2951083 L30.5226622,73.9777961 L-4.19220214e-13,83.9792918 C0.179928876,79.1542717 0.756291465,74.430617 1.69746627,69.8399492 L20.5179778,63.6846805 L11.1442346,44.7118167 C13.5918415,40.4041544 16.3997271,36.3279485 19.5269094,32.5241809 L33.7169292,61.205034 L52.2927528,62.1564262 L51.3456656,43.5849074 L22.4987014,29.0963236 C25.5977332,25.7051241 28.9640783,22.5623471 32.5643907,19.7013387 L53.8253119,30.3816511 L62.4643195,4.31808311 C67.1596521,2.97844706 72.0185836,2.02679204 77.0042321,1.5 Z"/>
    <path fill="#FF1AA4" d="M139.81931,19.3662906 C160.147269,35.1412832 173,60.0087609 173,87.7316181 C173,115.454927 159.917211,140.122587 139.588685,155.897547 L126.143744,142.450973 C140.760905,127.835732 148.810258,108.402266 148.810258,87.7316181 C148.810258,67.2925924 140.940147,48.064353 126.633947,33.5054941 L126.143744,33.0109834 L139.81931,19.3662906 Z"/>
    <path fill="#FF1AA4" fill-rule="nonzero" d="M73.1451931,89.4950188 L87.6209795,103.969526 C95.3613576,96.2278683 105.652862,91.964903 116.600699,91.964903 C127.547257,91.964903 137.839401,96.2278683 145.579779,103.969526 L160.055565,89.4950188 C148.448197,77.8876502 133.016058,71.4944817 116.600699,71.4944817 C100.184061,71.4944817 84.751922,77.8870105 73.1451931,89.4950188 Z" transform="rotate(90 116.6 87.732)"/>
    <circle cx="87.072" cy="87.732" r="13.527" fill="#FF1AA4"/>
  </g>
</svg>
